<?xml version="1.0" encoding="utf-8"?>
<!-- Generator: Adobe Illustrator 26.5.0, SVG Export Plug-In . SVG Version: 6.00 Build 0)  -->
<svg version="1.1" id="Layer_1" xmlns="http://www.w3.org/2000/svg" xmlns:xlink="http://www.w3.org/1999/xlink" x="0px" y="0px"
	 viewBox="0 0 169 163.1" style="enable-background:new 0 0 169 163.1;" xml:space="preserve">
<style type="text/css">
	.st0{fill:#4E5D33;}
	.st1{fill:#769E49;}
</style>
<g>
	<g>
		<path class="st0" d="M124.8,25.3c2.4,7.3,4.8,14.7,7.2,22c4.6,14.1,9.2,28.3,13.8,42.4c2.4,7.3,4.7,14.6,7.1,22
			c-15.2,11-30.3,22-45.7,33.1c-0.9-2.8-1.8-5.5-2.7-8.2c-4.6-14.1-9.2-28.3-13.8-42.4c-1.7-5.1-3.3-10.3-5-15.4
			c0.2-0.4,0.3-0.8,0.5-1.1c3.2-4.4,6.4-8.8,9.6-13.2c0.9-1.2,1.7-2.5,2.5-3.7c0.3,0.4,0.6,0.7,0.7,1.1
			c5.1,15.7,10.2,31.4,15.3,47.1c0.7,2.2,1.5,4.5,2.3,6.9c5.1-3.7,10.1-7.4,15.1-11c-6.7-20.7-13.4-41.3-20.1-61.9
			c0.1-0.2,0.1-0.4,0.2-0.5c3.6-5,7.2-9.9,10.8-14.9C123.3,26.7,124.1,26,124.8,25.3z"/>
		<path class="st1" d="M124.8,25.3c-0.7,0.8-1.5,1.5-2.1,2.3c-3.6,4.9-7.2,9.9-10.8,14.9c-0.1,0.1-0.1,0.3-0.2,0.5
			c-21.4,0-42.8,0-64.3,0c-0.8,0-1,0.3-1.3,1c-1.1,3.4-2.2,6.8-3.3,10.2c-0.7,2.1-1.3,4.2-2.1,6.5c0.7,0,1.3,0,1.8,0
			c18.1,0,36.2,0,54.2,0c0.5,0,1,0.1,1.6,0.1c-0.8,1.2-1.6,2.5-2.5,3.7c-3.2,4.4-6.4,8.8-9.6,13.2c-0.2,0.3-0.3,0.7-0.5,1.1
			c-0.6,0-1.2-0.1-1.7-0.1c-22.1,0-44.2,0-66.3,0c-0.5,0-1.1,0-1.8,0C21.9,60.7,27.7,42.9,33.5,25c0.5,0,0.9,0,1.3,0
			c29.6,0,59.1,0,88.7,0C123.9,25,124.4,25.2,124.8,25.3z"/>
	</g>
</g>
</svg>
